<?xml version="1.0" encoding="utf-8"?>
<!DOCTYPE svg PUBLIC "-//W3C//DTD SVG 1.1//EN" "http://www.w3.org/Graphics/SVG/1.1/DTD/svg11.dtd">
<svg xmlns="http://www.w3.org/2000/svg" xmlns:xlink="http://www.w3.org/1999/xlink" version="1.1" viewBox="0 0 512 512" enable-background="new 0 0 512 512" width="512px" height="512px">
  <g>
    <path d="M500.5,222.7l-65.5-52.2V57.3h-67.6v59.5L256,28.2L11.5,222.7h72.8v261.1h111.3h120.7h110.3V222.7H500.5z M386,131.2V77.1   h29.1v77.8L386,131.2z M65.6,204L256,52.1L446.4,204H65.6z M214.4,465.1V339.2c0-22.9,18.7-41.6,41.6-41.6s41.6,18.7,41.6,41.6   v125.9H214.4z M408.9,465.1h-92.6V339.2c0-33.3-27-60.3-60.3-60.3c-33.3,0-60.3,27-60.3,60.3v125.9h-91.5V222.7h304.8V465.1z" fill="#FFFFFF"/>
  </g>
</svg>
